<svg width="210" height="16" viewBox="0 0 210 16" fill="none" xmlns="http://www.w3.org/2000/svg">
<g clip-path="url(#clip0_311_127)">
<path d="M15.3571 13.0174C15.3571 13.9882 15.4063 14.4514 15.8746 14.5437C15.973 14.636 15.9493 15.0292 15.7999 15.0975C15.3808 15.1676 14.7413 15.236 14.0743 15.4445C13.2125 15.6992 11.0915 15.9983 9.71028 15.9983C8.03389 15.9983 6.60532 15.8359 4.85423 15.1898C1.97157 14.1045 0 11.5372 0 8.20767C0 5.31738 1.37937 2.77577 4.33673 1.22551C6.01312 0.369191 8.0102 0 10.1057 0C12.8426 0 14.1983 0.555496 14.9872 0.555496C15.062 1.24944 15.0856 2.86807 15.3316 4.27818C15.2332 4.53285 14.5681 4.55678 14.395 4.32432C13.6061 2.1502 12.0536 1.06484 9.7613 1.06484C5.84184 1.06484 3.94497 4.11751 3.94497 7.77011C3.94497 11.0774 5.15306 13.0413 6.75474 14.06C7.93732 14.8001 9.22012 14.9386 10.1312 14.9386C11.5361 14.9386 11.8331 14.6839 11.8331 13.1815V11.7252C11.8331 10.4775 11.6837 10.3374 10.5011 10.1767L9.41691 10.0382C9.14541 9.89809 9.14541 9.36823 9.41691 9.22978C11.168 9.27593 12.3761 9.29986 13.5824 9.29986C14.7886 9.29986 15.973 9.27593 16.8112 9.22978C17.008 9.36823 17.008 9.8998 16.8112 10.0382L16.2445 10.1305C15.5047 10.2468 15.3571 10.4775 15.3571 11.727V13.0208V13.0174Z" fill="white"/>
<path d="M24.7103 3.69871C24.7103 1.54851 24.5627 1.41006 23.453 1.20154L22.8372 1.08702C22.6404 0.946866 22.6149 0.439228 22.8864 0.300781C24.0689 0.34693 25.3025 0.370859 26.4851 0.370859C27.6677 0.370859 28.9013 0.348639 30.0839 0.300781C30.2807 0.439228 30.2807 0.948575 30.0839 1.08702L29.4917 1.17932C28.382 1.36392 28.2344 1.54851 28.2344 3.70042V9.04173C28.2344 11.7474 28.5551 14.73 32.3014 14.73C35.4574 14.73 36.4177 12.1405 36.4177 8.97336V6.17537C36.4177 4.30206 36.3193 2.54499 36.0478 1.94334C35.8255 1.45792 35.2843 1.31948 34.6174 1.20325L33.9523 1.08873C33.7555 0.904136 33.8047 0.440937 33.9523 0.30249C35.2825 0.348639 36.2446 0.372568 37.2559 0.372568C38.167 0.372568 39.0799 0.350349 40.0165 0.30249C40.1641 0.440937 40.2133 0.904136 40.0165 1.08873L39.5719 1.18103C38.9323 1.31948 38.464 1.45963 38.2417 1.94505C37.9702 2.54669 37.8718 4.30377 37.8718 6.17708V8.76654C37.8718 10.939 37.6495 12.9285 36.2938 14.3386C35.2096 15.4257 33.4093 16.0034 31.4141 16.0034C29.5409 16.0034 27.8645 15.7265 26.5343 14.7095C25.2515 13.7147 24.7103 12.0038 24.7103 9.48271V3.69871Z" fill="white"/>
<path d="M51.5161 12.2551C51.5161 14.4275 51.6637 14.5899 52.7971 14.7762L53.4877 14.8907C53.6845 15.0291 53.6608 15.5607 53.4622 15.6991C52.132 15.653 50.9239 15.6291 49.765 15.6291C48.6061 15.6291 47.3489 15.653 46.0187 15.6991C45.8219 15.5607 45.8219 15.0291 46.0187 14.8907L46.7093 14.7762C47.8427 14.5916 47.9903 14.4292 47.9903 12.2551V3.74657C47.9903 1.57244 47.8427 1.41006 46.7093 1.22547L46.0187 1.10924C45.8219 0.970795 45.8219 0.439228 46.0187 0.300781C47.3507 0.34693 48.5825 0.370859 49.765 0.370859C50.9476 0.370859 52.1557 0.348639 53.4877 0.300781C53.6845 0.439228 53.6845 0.970795 53.4877 1.10924L52.7971 1.22547C51.6637 1.41006 51.5161 1.57244 51.5161 3.74657V12.2551Z" fill="white"/>
<path d="M65.5832 11.7919C65.5832 12.8789 65.6816 13.619 66.0023 13.9882C66.323 14.3813 66.7676 14.5659 68.5661 14.5659C70.8091 14.5659 71.4997 14.4958 72.9538 11.8158C73.1506 11.585 73.7191 11.6756 73.8904 11.9542C73.7683 13.1558 73.1761 15.0753 72.8317 15.6991C71.5253 15.653 69.1583 15.6291 67.1375 15.6291H63.8339C62.7005 15.6291 61.4669 15.653 59.9382 15.6991C59.7159 15.5607 59.6667 15.0291 59.8634 14.8907L60.8 14.7762C61.9097 14.636 62.0573 14.4514 62.0573 12.3012V3.69871C62.0573 1.54851 61.9097 1.33999 60.8 1.20154L60.0857 1.10924C59.8398 0.970795 59.8398 0.439228 60.1349 0.300781C61.4159 0.34693 62.6495 0.370859 63.8321 0.370859C65.0147 0.370859 66.2483 0.348639 67.4801 0.300781C67.6769 0.439228 67.6769 0.970795 67.4801 1.10924L66.8387 1.20154C65.729 1.36392 65.5814 1.54851 65.5814 3.69871V11.7919H65.5832Z" fill="white"/>
<path d="M81.3976 4.11576C81.3976 1.91941 81.3484 1.48014 80.215 1.36392L79.7467 1.31777C79.5007 1.20325 79.5008 0.531526 79.7959 0.509306C81.8659 0.394788 83.7883 0.300781 86.4013 0.300781C88.422 0.300781 90.4446 0.485377 92.1447 1.0648C95.3736 2.15187 97.1483 4.87978 97.1483 7.77007C97.1483 10.8689 95.5704 13.3661 92.7369 14.6839C91.0605 15.4701 89.0397 15.7709 86.4997 15.7709C85.3408 15.7709 84.109 15.6325 83.2216 15.6325C82.039 15.6325 80.7817 15.6564 79.3768 15.7026C79.18 15.5641 79.18 15.0086 79.3768 14.8941L80.1403 14.7796C81.25 14.6172 81.3976 14.4326 81.3976 12.3046V4.11576ZM84.9235 11.4449C84.9235 12.7165 84.9727 13.5489 85.4155 14.0344C85.8601 14.4958 86.5744 14.7044 87.4618 14.7044C91.7256 14.7044 93.1797 11.1441 93.1797 7.9991C93.1797 3.83716 90.8382 1.36392 86.3758 1.36392C85.7107 1.36392 85.2424 1.47843 85.0948 1.66474C84.9454 1.84933 84.9217 2.2886 84.9217 3.00647V11.4466L84.9235 11.4449Z" fill="white"/>
<path d="M105.293 16H103.544L108.695 0H110.445L105.293 16Z" fill="white"/>
<g filter="url(#filter0_d_311_127)">
<path d="M120.275 14.4498L120.29 14.6464L120.385 14.4498L124.749 6.33447H125.685L120.574 15.5933H119.781L117.766 6.33447H118.601L120.275 14.4498Z" fill="white"/>
</g>
<g filter="url(#filter1_d_311_127)">
<path d="M131.341 10.1374C131.17 9.65366 130.895 9.27592 130.518 9.00587C130.14 8.7341 129.678 8.59395 129.131 8.58711C128.539 8.57514 127.983 8.72043 127.462 9.02296C126.942 9.3272 126.512 9.76476 126.174 10.3408C125.835 10.9168 125.634 11.5201 125.569 12.156L125.549 12.3713C125.49 12.9695 125.563 13.525 125.764 14.0412C125.964 14.5557 126.279 14.9625 126.707 15.2616C127.136 15.559 127.646 15.7128 128.233 15.7214C128.774 15.7299 129.273 15.6308 129.729 15.4257C130.182 15.2206 130.574 14.9181 130.906 14.5198L130.43 14.1575C130.137 14.4412 129.816 14.6685 129.468 14.8377C129.12 15.0069 128.728 15.0856 128.295 15.0719C127.846 15.0633 127.464 14.9369 127.147 14.6873C126.828 14.4395 126.596 14.1045 126.458 13.6823C126.317 13.2601 126.281 12.8174 126.35 12.3559L126.369 12.2038H131.449L131.502 11.7389C131.565 11.1526 131.511 10.6194 131.339 10.1357L131.341 10.1374ZM130.736 11.4671L130.716 11.5629L126.46 11.5577C126.695 10.8108 127.045 10.2331 127.509 9.82116C127.976 9.40924 128.502 9.21439 129.089 9.23661C129.654 9.2537 130.089 9.47932 130.397 9.91517C130.705 10.3493 130.816 10.8672 130.734 11.4689L130.736 11.4671Z" fill="white"/>
</g>
<g filter="url(#filter2_d_311_127)">
<path d="M134.401 8.71191L134.156 9.88956C134.483 9.46567 134.858 9.13921 135.286 8.91189C135.714 8.68627 136.172 8.57688 136.658 8.58543C137.363 8.60081 137.877 8.83497 138.198 9.27937C138.519 9.72377 138.632 10.3374 138.537 11.1168L137.737 15.5932H136.937L137.737 11.1082C137.764 10.8672 137.77 10.6348 137.75 10.4109C137.673 9.6554 137.234 9.26911 136.434 9.2486C135.96 9.24006 135.516 9.37338 135.106 9.64514C134.694 9.91862 134.333 10.3305 134.02 10.8809L133.152 15.5949H132.353L133.626 8.71362H134.401V8.71191Z" fill="white"/>
</g>
<g filter="url(#filter3_d_311_127)">
<path d="M142.658 6.95117L142.332 8.71167H143.803L143.688 9.33553H142.216L141.403 13.9282L141.388 14.3213C141.388 14.7845 141.614 15.0204 142.066 15.0341C142.207 15.0375 142.425 15.0238 142.724 14.9896L142.689 15.6135C142.423 15.6853 142.152 15.7178 141.877 15.7075C141.403 15.699 141.057 15.5434 140.84 15.2409C140.623 14.9366 140.545 14.4974 140.603 13.9197L141.41 9.33553H140.095L140.217 8.71167H141.518L141.849 6.95117H142.657H142.658Z" fill="white"/>
</g>
<g filter="url(#filter4_d_311_127)">
<path d="M149.078 14.7284C148.495 15.4155 147.69 15.7471 146.664 15.7214C145.973 15.7077 145.458 15.4736 145.117 15.0189C144.778 14.5626 144.658 13.9302 144.751 13.12L145.536 8.71191H146.338L145.558 13.1388C145.53 13.3678 145.527 13.5952 145.55 13.8191C145.581 14.2088 145.705 14.5113 145.924 14.7232C146.139 14.9335 146.44 15.048 146.819 15.06C147.36 15.0805 147.863 14.9642 148.324 14.7079C148.785 14.4515 149.082 14.1148 149.218 13.6994L150.126 8.71191H150.939L149.665 15.5932H148.878L149.075 14.7284H149.078Z" fill="white"/>
</g>
<g filter="url(#filter5_d_311_127)">
<path d="M156.157 9.35436C155.982 9.32018 155.802 9.30137 155.621 9.29625C155.106 9.29625 154.634 9.44324 154.206 9.73894C153.776 10.0329 153.488 10.4072 153.344 10.8602L152.476 15.5913H151.677L152.95 8.70999H153.745L153.5 9.80389C153.767 9.39709 154.089 9.08772 154.468 8.87407C154.845 8.66384 155.259 8.56128 155.713 8.56983C155.871 8.56983 156.057 8.59889 156.268 8.65871L156.159 9.35265L156.157 9.35436Z" fill="white"/>
</g>
<g filter="url(#filter6_d_311_127)">
<path d="M162.287 10.1374C162.114 9.65366 161.841 9.27592 161.463 9.00587C161.086 8.7341 160.623 8.59395 160.077 8.58711C159.484 8.57514 158.929 8.72043 158.409 9.02296C157.89 9.3272 157.46 9.76476 157.121 10.3408C156.782 10.9168 156.582 11.5201 156.518 12.156L156.498 12.3713C156.44 12.9695 156.511 13.525 156.713 14.0412C156.912 14.5557 157.229 14.9625 157.659 15.2616C158.089 15.559 158.597 15.7128 159.184 15.7214C159.727 15.7299 160.224 15.6308 160.678 15.4257C161.134 15.2206 161.523 14.9181 161.855 14.5198L161.38 14.1575C161.086 14.4412 160.765 14.6685 160.416 14.8377C160.068 15.0069 159.678 15.0856 159.244 15.0719C158.796 15.0633 158.413 14.9369 158.096 14.6873C157.775 14.4395 157.548 14.1045 157.407 13.6823C157.267 13.2601 157.23 12.8174 157.3 12.3559L157.32 12.2038H162.398L162.453 11.7389C162.515 11.1526 162.462 10.6194 162.289 10.1357L162.287 10.1374ZM161.684 11.4671L161.664 11.5629L157.405 11.5577C157.64 10.8108 157.992 10.2331 158.457 9.82116C158.921 9.40924 159.448 9.21439 160.037 9.23661C160.601 9.2537 161.037 9.47932 161.345 9.91517C161.653 10.3493 161.764 10.8672 161.686 11.4689L161.684 11.4671Z" fill="white"/>
</g>
<g filter="url(#filter7_d_311_127)">
<path d="M172.919 11.2622H168.459L167.651 15.5933H166.822L168.539 6.33447H174.492L174.362 6.99594H169.244L168.572 10.6007H173.047L172.919 11.2622Z" fill="white"/>
</g>
<g filter="url(#filter8_d_311_127)">
<path d="M179.002 14.7284C178.419 15.4155 177.613 15.7471 176.587 15.7214C175.897 15.7077 175.381 15.4736 175.042 15.0189C174.703 14.5626 174.581 13.9302 174.676 13.12L175.461 8.71191H176.263L175.483 13.1388C175.454 13.3678 175.452 13.5952 175.476 13.8191C175.507 14.2088 175.631 14.5113 175.849 14.7232C176.066 14.9335 176.363 15.048 176.744 15.06C177.285 15.0805 177.79 14.9642 178.249 14.7079C178.71 14.4515 179.007 14.1148 179.144 13.6994L180.053 8.71191H180.866L179.592 15.5932H178.805L179.002 14.7284Z" fill="white"/>
</g>
<g filter="url(#filter9_d_311_127)">
<path d="M186.079 9.35436C185.902 9.32018 185.724 9.30137 185.543 9.29625C185.027 9.29625 184.556 9.44324 184.127 9.73894C183.697 10.0329 183.409 10.4072 183.265 10.8602L182.398 15.5913H181.598L182.872 8.70999H183.666L183.422 9.80389C183.688 9.39709 184.011 9.08772 184.388 8.87407C184.765 8.66384 185.182 8.56128 185.632 8.56983C185.793 8.56983 185.977 8.59889 186.188 8.65871L186.081 9.35265L186.079 9.35436Z" fill="white"/>
</g>
<g filter="url(#filter10_d_311_127)">
<path d="M189.373 6.95117L189.049 8.71167H190.519L190.403 9.33553H188.932L188.118 13.9282L188.105 14.3213C188.105 14.7845 188.329 15.0204 188.783 15.0341C188.923 15.0375 189.142 15.0238 189.439 14.9896L189.406 15.6135C189.138 15.6853 188.868 15.7178 188.592 15.7075C188.116 15.699 187.77 15.5434 187.553 15.2409C187.338 14.9366 187.258 14.4974 187.314 13.9197L188.123 9.33553H186.808L186.93 8.71167H188.231L188.564 6.95117H189.37H189.373Z" fill="white"/>
</g>
<g filter="url(#filter11_d_311_127)">
<path d="M192.739 9.8758C193.444 8.99726 194.275 8.56825 195.233 8.58534C195.939 8.60072 196.452 8.83489 196.773 9.27928C197.094 9.72368 197.207 10.3373 197.112 11.1167L196.312 15.5931H195.514L196.312 11.1081C196.339 10.8671 196.343 10.6347 196.325 10.4108C196.248 9.65531 195.809 9.26903 195.009 9.24852C194.535 9.23997 194.093 9.37329 193.681 9.64506C193.269 9.91853 192.908 10.3305 192.597 10.8808L191.729 15.5948H190.929L192.741 5.82666H193.539L192.741 9.87922L192.739 9.8758Z" fill="white"/>
</g>
<g filter="url(#filter12_d_311_127)">
<path d="M204.4 10.1374C204.227 9.65366 203.954 9.27592 203.575 9.00587C203.2 8.7341 202.737 8.59395 202.188 8.58711C201.596 8.57514 201.042 8.72043 200.521 9.02296C200.002 9.3272 199.572 9.76476 199.233 10.3408C198.892 10.9168 198.692 11.5201 198.63 12.156L198.608 12.3713C198.55 12.9695 198.622 13.525 198.823 14.0412C199.023 14.5557 199.339 14.9625 199.769 15.2616C200.197 15.559 200.707 15.7128 201.296 15.7214C201.839 15.7299 202.336 15.6308 202.79 15.4257C203.243 15.2206 203.637 14.9181 203.967 14.5198L203.491 14.1575C203.196 14.4412 202.875 14.6685 202.527 14.8377C202.179 15.0069 201.788 15.0856 201.354 15.0719C200.907 15.0633 200.525 14.9369 200.206 14.6873C199.887 14.4395 199.657 14.1045 199.517 13.6823C199.377 13.2601 199.342 12.8174 199.41 12.3559L199.43 12.2038H204.508L204.561 11.7389C204.625 11.1526 204.57 10.6194 204.399 10.1357L204.4 10.1374ZM203.796 11.4671L203.775 11.5629L199.517 11.5577C199.752 10.8108 200.102 10.2331 200.567 9.82116C201.033 9.40924 201.56 9.21439 202.148 9.23661C202.713 9.2537 203.15 9.47932 203.457 9.91517C203.763 10.3493 203.876 10.8672 203.796 11.4689V11.4671Z" fill="white"/>
</g>
<g filter="url(#filter13_d_311_127)">
<path d="M209.893 9.35436C209.718 9.32018 209.539 9.30137 209.359 9.29625C208.843 9.29625 208.371 9.44324 207.941 9.73894C207.511 10.0329 207.223 10.4072 207.079 10.8602L206.212 15.5913H205.412L206.687 8.70999H207.48L207.236 9.80389C207.504 9.39709 207.826 9.08772 208.203 8.87407C208.581 8.66384 208.996 8.56128 209.448 8.56983C209.606 8.56983 209.791 8.59889 210.004 8.65871L209.894 9.35265L209.893 9.35436Z" fill="white"/>
</g>
</g>
<defs>
<filter id="filter0_d_311_127" x="112.766" y="1.33447" width="19.9192" height="21.2588" filterUnits="userSpaceOnUse" color-interpolation-filters="sRGB">
<feFlood flood-opacity="0" result="BackgroundImageFix"/>
<feColorMatrix in="SourceAlpha" type="matrix" values="0 0 0 0 0 0 0 0 0 0 0 0 0 0 0 0 0 0 127 0" result="hardAlpha"/>
<feOffset dx="1" dy="1"/>
<feGaussianBlur stdDeviation="3"/>
<feColorMatrix type="matrix" values="0 0 0 0 0.00392157 0 0 0 0 0.00392157 0 0 0 0 0.00392157 0 0 0 0.75 0"/>
<feBlend mode="normal" in2="BackgroundImageFix" result="effect1_dropShadow_311_127"/>
<feBlend mode="normal" in="SourceGraphic" in2="effect1_dropShadow_311_127" result="shape"/>
</filter>
<filter id="filter1_d_311_127" x="120.529" y="3.58643" width="17.9983" height="19.1353" filterUnits="userSpaceOnUse" color-interpolation-filters="sRGB">
<feFlood flood-opacity="0" result="BackgroundImageFix"/>
<feColorMatrix in="SourceAlpha" type="matrix" values="0 0 0 0 0 0 0 0 0 0 0 0 0 0 0 0 0 0 127 0" result="hardAlpha"/>
<feOffset dx="1" dy="1"/>
<feGaussianBlur stdDeviation="3"/>
<feColorMatrix type="matrix" values="0 0 0 0 0.00392157 0 0 0 0 0.00392157 0 0 0 0 0.00392157 0 0 0 0.75 0"/>
<feBlend mode="normal" in2="BackgroundImageFix" result="effect1_dropShadow_311_127"/>
<feBlend mode="normal" in="SourceGraphic" in2="effect1_dropShadow_311_127" result="shape"/>
</filter>
<filter id="filter2_d_311_127" x="127.353" y="3.58496" width="18.2168" height="19.0098" filterUnits="userSpaceOnUse" color-interpolation-filters="sRGB">
<feFlood flood-opacity="0" result="BackgroundImageFix"/>
<feColorMatrix in="SourceAlpha" type="matrix" values="0 0 0 0 0 0 0 0 0 0 0 0 0 0 0 0 0 0 127 0" result="hardAlpha"/>
<feOffset dx="1" dy="1"/>
<feGaussianBlur stdDeviation="3"/>
<feColorMatrix type="matrix" values="0 0 0 0 0.00392157 0 0 0 0 0.00392157 0 0 0 0 0.00392157 0 0 0 0.75 0"/>
<feBlend mode="normal" in2="BackgroundImageFix" result="effect1_dropShadow_311_127"/>
<feBlend mode="normal" in="SourceGraphic" in2="effect1_dropShadow_311_127" result="shape"/>
</filter>
<filter id="filter3_d_311_127" x="135.095" y="1.95117" width="15.708" height="20.7583" filterUnits="userSpaceOnUse" color-interpolation-filters="sRGB">
<feFlood flood-opacity="0" result="BackgroundImageFix"/>
<feColorMatrix in="SourceAlpha" type="matrix" values="0 0 0 0 0 0 0 0 0 0 0 0 0 0 0 0 0 0 127 0" result="hardAlpha"/>
<feOffset dx="1" dy="1"/>
<feGaussianBlur stdDeviation="3"/>
<feColorMatrix type="matrix" values="0 0 0 0 0.00392157 0 0 0 0 0.00392157 0 0 0 0 0.00392157 0 0 0 0.75 0"/>
<feBlend mode="normal" in2="BackgroundImageFix" result="effect1_dropShadow_311_127"/>
<feBlend mode="normal" in="SourceGraphic" in2="effect1_dropShadow_311_127" result="shape"/>
</filter>
<filter id="filter4_d_311_127" x="139.72" y="3.71191" width="18.2183" height="19.0107" filterUnits="userSpaceOnUse" color-interpolation-filters="sRGB">
<feFlood flood-opacity="0" result="BackgroundImageFix"/>
<feColorMatrix in="SourceAlpha" type="matrix" values="0 0 0 0 0 0 0 0 0 0 0 0 0 0 0 0 0 0 127 0" result="hardAlpha"/>
<feOffset dx="1" dy="1"/>
<feGaussianBlur stdDeviation="3"/>
<feColorMatrix type="matrix" values="0 0 0 0 0.00392157 0 0 0 0 0.00392157 0 0 0 0 0.00392157 0 0 0 0.75 0"/>
<feBlend mode="normal" in2="BackgroundImageFix" result="effect1_dropShadow_311_127"/>
<feBlend mode="normal" in="SourceGraphic" in2="effect1_dropShadow_311_127" result="shape"/>
</filter>
<filter id="filter5_d_311_127" x="146.677" y="3.56934" width="16.5918" height="19.022" filterUnits="userSpaceOnUse" color-interpolation-filters="sRGB">
<feFlood flood-opacity="0" result="BackgroundImageFix"/>
<feColorMatrix in="SourceAlpha" type="matrix" values="0 0 0 0 0 0 0 0 0 0 0 0 0 0 0 0 0 0 127 0" result="hardAlpha"/>
<feOffset dx="1" dy="1"/>
<feGaussianBlur stdDeviation="3"/>
<feColorMatrix type="matrix" values="0 0 0 0 0.00392157 0 0 0 0 0.00392157 0 0 0 0 0.00392157 0 0 0 0.75 0"/>
<feBlend mode="normal" in2="BackgroundImageFix" result="effect1_dropShadow_311_127"/>
<feBlend mode="normal" in="SourceGraphic" in2="effect1_dropShadow_311_127" result="shape"/>
</filter>
<filter id="filter6_d_311_127" x="151.478" y="3.58643" width="17.9995" height="19.1353" filterUnits="userSpaceOnUse" color-interpolation-filters="sRGB">
<feFlood flood-opacity="0" result="BackgroundImageFix"/>
<feColorMatrix in="SourceAlpha" type="matrix" values="0 0 0 0 0 0 0 0 0 0 0 0 0 0 0 0 0 0 127 0" result="hardAlpha"/>
<feOffset dx="1" dy="1"/>
<feGaussianBlur stdDeviation="3"/>
<feColorMatrix type="matrix" values="0 0 0 0 0.00392157 0 0 0 0 0.00392157 0 0 0 0 0.00392157 0 0 0 0.75 0"/>
<feBlend mode="normal" in2="BackgroundImageFix" result="effect1_dropShadow_311_127"/>
<feBlend mode="normal" in="SourceGraphic" in2="effect1_dropShadow_311_127" result="shape"/>
</filter>
<filter id="filter7_d_311_127" x="161.822" y="1.33447" width="19.6694" height="21.2588" filterUnits="userSpaceOnUse" color-interpolation-filters="sRGB">
<feFlood flood-opacity="0" result="BackgroundImageFix"/>
<feColorMatrix in="SourceAlpha" type="matrix" values="0 0 0 0 0 0 0 0 0 0 0 0 0 0 0 0 0 0 127 0" result="hardAlpha"/>
<feOffset dx="1" dy="1"/>
<feGaussianBlur stdDeviation="3"/>
<feColorMatrix type="matrix" values="0 0 0 0 0.00392157 0 0 0 0 0.00392157 0 0 0 0 0.00392157 0 0 0 0.75 0"/>
<feBlend mode="normal" in2="BackgroundImageFix" result="effect1_dropShadow_311_127"/>
<feBlend mode="normal" in="SourceGraphic" in2="effect1_dropShadow_311_127" result="shape"/>
</filter>
<filter id="filter8_d_311_127" x="169.645" y="3.71191" width="18.2209" height="19.0107" filterUnits="userSpaceOnUse" color-interpolation-filters="sRGB">
<feFlood flood-opacity="0" result="BackgroundImageFix"/>
<feColorMatrix in="SourceAlpha" type="matrix" values="0 0 0 0 0 0 0 0 0 0 0 0 0 0 0 0 0 0 127 0" result="hardAlpha"/>
<feOffset dx="1" dy="1"/>
<feGaussianBlur stdDeviation="3"/>
<feColorMatrix type="matrix" values="0 0 0 0 0.00392157 0 0 0 0 0.00392157 0 0 0 0 0.00392157 0 0 0 0.75 0"/>
<feBlend mode="normal" in2="BackgroundImageFix" result="effect1_dropShadow_311_127"/>
<feBlend mode="normal" in="SourceGraphic" in2="effect1_dropShadow_311_127" result="shape"/>
</filter>
<filter id="filter9_d_311_127" x="176.598" y="3.56934" width="16.5901" height="19.022" filterUnits="userSpaceOnUse" color-interpolation-filters="sRGB">
<feFlood flood-opacity="0" result="BackgroundImageFix"/>
<feColorMatrix in="SourceAlpha" type="matrix" values="0 0 0 0 0 0 0 0 0 0 0 0 0 0 0 0 0 0 127 0" result="hardAlpha"/>
<feOffset dx="1" dy="1"/>
<feGaussianBlur stdDeviation="3"/>
<feColorMatrix type="matrix" values="0 0 0 0 0.00392157 0 0 0 0 0.00392157 0 0 0 0 0.00392157 0 0 0 0.75 0"/>
<feBlend mode="normal" in2="BackgroundImageFix" result="effect1_dropShadow_311_127"/>
<feBlend mode="normal" in="SourceGraphic" in2="effect1_dropShadow_311_127" result="shape"/>
</filter>
<filter id="filter10_d_311_127" x="181.808" y="1.95117" width="15.7117" height="20.7583" filterUnits="userSpaceOnUse" color-interpolation-filters="sRGB">
<feFlood flood-opacity="0" result="BackgroundImageFix"/>
<feColorMatrix in="SourceAlpha" type="matrix" values="0 0 0 0 0 0 0 0 0 0 0 0 0 0 0 0 0 0 127 0" result="hardAlpha"/>
<feOffset dx="1" dy="1"/>
<feGaussianBlur stdDeviation="3"/>
<feColorMatrix type="matrix" values="0 0 0 0 0.00392157 0 0 0 0 0.00392157 0 0 0 0 0.00392157 0 0 0 0.75 0"/>
<feBlend mode="normal" in2="BackgroundImageFix" result="effect1_dropShadow_311_127"/>
<feBlend mode="normal" in="SourceGraphic" in2="effect1_dropShadow_311_127" result="shape"/>
</filter>
<filter id="filter11_d_311_127" x="185.929" y="0.82666" width="18.2151" height="21.7681" filterUnits="userSpaceOnUse" color-interpolation-filters="sRGB">
<feFlood flood-opacity="0" result="BackgroundImageFix"/>
<feColorMatrix in="SourceAlpha" type="matrix" values="0 0 0 0 0 0 0 0 0 0 0 0 0 0 0 0 0 0 127 0" result="hardAlpha"/>
<feOffset dx="1" dy="1"/>
<feGaussianBlur stdDeviation="3"/>
<feColorMatrix type="matrix" values="0 0 0 0 0.00392157 0 0 0 0 0.00392157 0 0 0 0 0.00392157 0 0 0 0.75 0"/>
<feBlend mode="normal" in2="BackgroundImageFix" result="effect1_dropShadow_311_127"/>
<feBlend mode="normal" in="SourceGraphic" in2="effect1_dropShadow_311_127" result="shape"/>
</filter>
<filter id="filter12_d_311_127" x="193.588" y="3.58643" width="17.9983" height="19.1353" filterUnits="userSpaceOnUse" color-interpolation-filters="sRGB">
<feFlood flood-opacity="0" result="BackgroundImageFix"/>
<feColorMatrix in="SourceAlpha" type="matrix" values="0 0 0 0 0 0 0 0 0 0 0 0 0 0 0 0 0 0 127 0" result="hardAlpha"/>
<feOffset dx="1" dy="1"/>
<feGaussianBlur stdDeviation="3"/>
<feColorMatrix type="matrix" values="0 0 0 0 0.00392157 0 0 0 0 0.00392157 0 0 0 0 0.00392157 0 0 0 0.75 0"/>
<feBlend mode="normal" in2="BackgroundImageFix" result="effect1_dropShadow_311_127"/>
<feBlend mode="normal" in="SourceGraphic" in2="effect1_dropShadow_311_127" result="shape"/>
</filter>
<filter id="filter13_d_311_127" x="200.412" y="3.56934" width="16.5918" height="19.022" filterUnits="userSpaceOnUse" color-interpolation-filters="sRGB">
<feFlood flood-opacity="0" result="BackgroundImageFix"/>
<feColorMatrix in="SourceAlpha" type="matrix" values="0 0 0 0 0 0 0 0 0 0 0 0 0 0 0 0 0 0 127 0" result="hardAlpha"/>
<feOffset dx="1" dy="1"/>
<feGaussianBlur stdDeviation="3"/>
<feColorMatrix type="matrix" values="0 0 0 0 0.00392157 0 0 0 0 0.00392157 0 0 0 0 0.00392157 0 0 0 0.75 0"/>
<feBlend mode="normal" in2="BackgroundImageFix" result="effect1_dropShadow_311_127"/>
<feBlend mode="normal" in="SourceGraphic" in2="effect1_dropShadow_311_127" result="shape"/>
</filter>
<clipPath id="clip0_311_127">
<rect width="210" height="16" fill="white"/>
</clipPath>
</defs>
</svg>
