<svg
  width="406"
  height="585"
  viewBox="0 0 406 585"
  fill="none"
  xmlns="http://www.w3.org/2000/svg"
>
  <path
    d="M405 110.75C405 140.75 380.654 168.179 340.677 188.168C300.759 208.126 245.544 220.5 184.5 220.5C123.456 220.5 68.2406 208.126 28.3231 188.168C-11.6542 168.179 -36 140.75 -36 110.75C-36 80.7501 -11.6542 53.321 28.3231 33.3324C68.2406 13.3736 123.456 1 184.5 1C245.544 1 300.759 13.3736 340.677 33.3324C380.654 53.321 405 80.7501 405 110.75Z"
    stroke="url(#paint0_linear_380_34)"
    stroke-opacity="0.1"
    stroke-width="2"
  />
  <path
    d="M405 123.056C405 153.056 380.654 180.485 340.677 200.473C300.759 220.432 245.544 232.806 184.5 232.806C123.456 232.806 68.2406 220.432 28.3231 200.473C-11.6542 180.485 -36 153.056 -36 123.056C-36 93.0557 -11.6542 65.6267 28.3231 45.638C68.2406 25.6793 123.456 13.3057 184.5 13.3057C245.544 13.3057 300.759 25.6793 340.677 45.638C380.654 65.6267 405 93.0557 405 123.056Z"
    stroke="url(#paint1_linear_380_34)"
    stroke-opacity="0.1"
    stroke-width="2"
  />
  <path
    d="M405 135.361C405 165.361 380.654 192.79 340.677 212.779C300.759 232.737 245.544 245.111 184.5 245.111C123.456 245.111 68.2406 232.737 28.3231 212.779C-11.6542 192.79 -36 165.361 -36 135.361C-36 105.361 -11.6542 77.9321 28.3231 57.9434C68.2406 37.9847 123.456 25.6111 184.5 25.6111C245.544 25.6111 300.759 37.9847 340.677 57.9434C380.654 77.9321 405 105.361 405 135.361Z"
    stroke="url(#paint2_linear_380_34)"
    stroke-opacity="0.1"
    stroke-width="2"
  />
  <path
    d="M405 147.667C405 177.667 380.654 205.096 340.677 225.084C300.759 245.043 245.544 257.417 184.5 257.417C123.456 257.417 68.2406 245.043 28.3231 225.084C-11.6542 205.096 -36 177.667 -36 147.667C-36 117.667 -11.6542 90.2378 28.3231 70.2491C68.2406 50.2904 123.456 37.9167 184.5 37.9167C245.544 37.9167 300.759 50.2904 340.677 70.2491C380.654 90.2378 405 117.667 405 147.667Z"
    stroke="url(#paint3_linear_380_34)"
    stroke-opacity="0.1"
    stroke-width="2"
  />
  <path
    d="M405 159.972C405 189.972 380.654 217.401 340.677 237.39C300.759 257.349 245.544 269.722 184.5 269.722C123.456 269.722 68.2406 257.349 28.3231 237.39C-11.6542 217.401 -36 189.972 -36 159.972C-36 129.972 -11.6542 102.543 28.3231 82.5545C68.2406 62.5958 123.456 50.2222 184.5 50.2222C245.544 50.2222 300.759 62.5958 340.677 82.5545C380.654 102.543 405 129.972 405 159.972Z"
    stroke="url(#paint4_linear_380_34)"
    stroke-opacity="0.1"
    stroke-width="2"
  />
  <path
    d="M405 172.278C405 202.278 380.654 229.707 340.677 249.695C300.759 269.654 245.544 282.028 184.5 282.028C123.456 282.028 68.2406 269.654 28.3231 249.695C-11.6542 229.707 -36 202.278 -36 172.278C-36 142.278 -11.6542 114.849 28.3231 94.8602C68.2406 74.9014 123.456 62.5278 184.5 62.5278C245.544 62.5278 300.759 74.9014 340.677 94.8602C380.654 114.849 405 142.278 405 172.278Z"
    stroke="url(#paint5_linear_380_34)"
    stroke-opacity="0.1"
    stroke-width="2"
  />
  <path
    d="M405 184.583C405 214.583 380.654 242.012 340.677 262.001C300.759 281.96 245.544 294.333 184.5 294.333C123.456 294.333 68.2406 281.96 28.3231 262.001C-11.6542 242.012 -36 214.583 -36 184.583C-36 154.583 -11.6542 127.154 28.3231 107.166C68.2406 87.2069 123.456 74.8333 184.5 74.8333C245.544 74.8333 300.759 87.2069 340.677 107.166C380.654 127.154 405 154.583 405 184.583Z"
    stroke="url(#paint6_linear_380_34)"
    stroke-opacity="0.1"
    stroke-width="2"
  />
  <path
    d="M405 196.889C405 226.889 380.654 254.318 340.677 274.307C300.759 294.265 245.544 306.639 184.5 306.639C123.456 306.639 68.2406 294.265 28.3231 274.307C-11.6542 254.318 -36 226.889 -36 196.889C-36 166.889 -11.6542 139.46 28.3231 119.471C68.2406 99.5125 123.456 87.1389 184.5 87.1389C245.544 87.1389 300.759 99.5125 340.677 119.471C380.654 139.46 405 166.889 405 196.889Z"
    stroke="url(#paint7_linear_380_34)"
    stroke-opacity="0.1"
    stroke-width="2"
  />
  <path
    d="M405 209.194C405 239.194 380.654 266.623 340.677 286.612C300.759 306.571 245.544 318.944 184.5 318.944C123.456 318.944 68.2406 306.571 28.3231 286.612C-11.6542 266.623 -36 239.194 -36 209.194C-36 179.194 -11.6542 151.765 28.3231 131.777C68.2406 111.818 123.456 99.4443 184.5 99.4443C245.544 99.4443 300.759 111.818 340.677 131.777C380.654 151.765 405 179.194 405 209.194Z"
    stroke="url(#paint8_linear_380_34)"
    stroke-opacity="0.1"
    stroke-width="2"
  />
  <path
    d="M405 221.5C405 251.5 380.654 278.929 340.677 298.918C300.759 318.876 245.544 331.25 184.5 331.25C123.456 331.25 68.2406 318.876 28.3231 298.918C-11.6542 278.929 -36 251.5 -36 221.5C-36 191.5 -11.6542 164.071 28.3231 144.082C68.2406 124.124 123.456 111.75 184.5 111.75C245.544 111.75 300.759 124.124 340.677 144.082C380.654 164.071 405 191.5 405 221.5Z"
    stroke="url(#paint9_linear_380_34)"
    stroke-opacity="0.1"
    stroke-width="2"
  />
  <path
    d="M405 233.806C405 263.806 380.654 291.235 340.677 311.223C300.759 331.182 245.544 343.556 184.5 343.556C123.456 343.556 68.2406 331.182 28.3231 311.223C-11.6542 291.235 -36 263.806 -36 233.806C-36 203.806 -11.6542 176.377 28.3231 156.388C68.2406 136.429 123.456 124.056 184.5 124.056C245.544 124.056 300.759 136.429 340.677 156.388C380.654 176.377 405 203.806 405 233.806Z"
    stroke="url(#paint10_linear_380_34)"
    stroke-opacity="0.1"
    stroke-width="2"
  />
  <path
    d="M405 246.111C405 276.111 380.654 303.54 340.677 323.529C300.759 343.487 245.544 355.861 184.5 355.861C123.456 355.861 68.2406 343.487 28.3231 323.529C-11.6542 303.54 -36 276.111 -36 246.111C-36 216.111 -11.6542 188.682 28.3231 168.693C68.2406 148.735 123.456 136.361 184.5 136.361C245.544 136.361 300.759 148.735 340.677 168.693C380.654 188.682 405 216.111 405 246.111Z"
    stroke="url(#paint11_linear_380_34)"
    stroke-opacity="0.1"
    stroke-width="2"
  />
  <path
    d="M405 258.417C405 288.417 380.654 315.846 340.677 335.834C300.759 355.793 245.544 368.167 184.5 368.167C123.456 368.167 68.2406 355.793 28.3231 335.834C-11.6542 315.846 -36 288.417 -36 258.417C-36 228.417 -11.6542 200.988 28.3231 180.999C68.2406 161.04 123.456 148.667 184.5 148.667C245.544 148.667 300.759 161.04 340.677 180.999C380.654 200.988 405 228.417 405 258.417Z"
    stroke="url(#paint12_linear_380_34)"
    stroke-opacity="0.1"
    stroke-width="2"
  />
  <path
    d="M405 270.722C405 300.722 380.654 328.151 340.677 348.14C300.759 368.099 245.544 380.472 184.5 380.472C123.456 380.472 68.2406 368.099 28.3231 348.14C-11.6542 328.151 -36 300.722 -36 270.722C-36 240.722 -11.6542 213.293 28.3231 193.305C68.2406 173.346 123.456 160.972 184.5 160.972C245.544 160.972 300.759 173.346 340.677 193.305C380.654 213.293 405 240.722 405 270.722Z"
    stroke="url(#paint13_linear_380_34)"
    stroke-opacity="0.1"
    stroke-width="2"
  />
  <path
    d="M405 283.028C405 313.028 380.654 340.457 340.677 360.445C300.759 380.404 245.544 392.778 184.5 392.778C123.456 392.778 68.2406 380.404 28.3231 360.445C-11.6542 340.457 -36 313.028 -36 283.028C-36 253.028 -11.6542 225.599 28.3231 205.61C68.2406 185.651 123.456 173.278 184.5 173.278C245.544 173.278 300.759 185.651 340.677 205.61C380.654 225.599 405 253.028 405 283.028Z"
    stroke="url(#paint14_linear_380_34)"
    stroke-opacity="0.1"
    stroke-width="2"
  />
  <path
    d="M405 356.146C405 386.146 380.654 413.575 340.677 433.564C300.759 453.523 245.544 465.896 184.5 465.896C123.456 465.896 68.2406 453.523 28.3231 433.564C-11.6542 413.575 -36 386.146 -36 356.146C-36 326.146 -11.6542 298.717 28.3231 278.729C68.2406 258.77 123.456 246.396 184.5 246.396C245.544 246.396 300.759 258.77 340.677 278.729C380.654 298.717 405 326.146 405 356.146Z"
    stroke="url(#paint15_linear_380_34)"
    stroke-opacity="0.1"
    stroke-width="2"
  />
  <path
    d="M405 368.452C405 398.452 380.654 425.881 340.677 445.87C300.759 465.828 245.544 478.202 184.5 478.202C123.456 478.202 68.2406 465.828 28.3231 445.87C-11.6542 425.881 -36 398.452 -36 368.452C-36 338.452 -11.6542 311.023 28.3231 291.034C68.2406 271.076 123.456 258.702 184.5 258.702C245.544 258.702 300.759 271.076 340.677 291.034C380.654 311.023 405 338.452 405 368.452Z"
    stroke="url(#paint16_linear_380_34)"
    stroke-opacity="0.1"
    stroke-width="2"
  />
  <path
    d="M405 380.757C405 410.757 380.654 438.186 340.677 458.175C300.759 478.134 245.544 490.507 184.5 490.507C123.456 490.507 68.2406 478.134 28.3231 458.175C-11.6542 438.186 -36 410.757 -36 380.757C-36 350.757 -11.6542 323.328 28.3231 303.34C68.2406 283.381 123.456 271.007 184.5 271.007C245.544 271.007 300.759 283.381 340.677 303.34C380.654 323.328 405 350.757 405 380.757Z"
    stroke="url(#paint17_linear_380_34)"
    stroke-opacity="0.1"
    stroke-width="2"
  />
  <path
    d="M405 393.063C405 423.063 380.654 450.492 340.677 470.481C300.759 490.439 245.544 502.813 184.5 502.813C123.456 502.813 68.2406 490.439 28.3231 470.481C-11.6542 450.492 -36 423.063 -36 393.063C-36 363.063 -11.6542 335.634 28.3231 315.645C68.2406 295.687 123.456 283.313 184.5 283.313C245.544 283.313 300.759 295.687 340.677 315.645C380.654 335.634 405 363.063 405 393.063Z"
    stroke="url(#paint18_linear_380_34)"
    stroke-opacity="0.1"
    stroke-width="2"
  />
  <path
    d="M405 405.368C405 435.368 380.654 462.797 340.677 482.786C300.759 502.745 245.544 515.118 184.5 515.118C123.456 515.118 68.2406 502.745 28.3231 482.786C-11.6542 462.797 -36 435.368 -36 405.368C-36 375.368 -11.6542 347.939 28.3231 327.951C68.2406 307.992 123.456 295.618 184.5 295.618C245.544 295.618 300.759 307.992 340.677 327.951C380.654 347.939 405 375.368 405 405.368Z"
    stroke="url(#paint19_linear_380_34)"
    stroke-opacity="0.1"
    stroke-width="2"
  />
  <path
    d="M405 417.674C405 447.674 380.654 475.103 340.677 495.092C300.759 515.05 245.544 527.424 184.5 527.424C123.456 527.424 68.2406 515.05 28.3231 495.092C-11.6542 475.103 -36 447.674 -36 417.674C-36 387.674 -11.6542 360.245 28.3231 340.256C68.2406 320.298 123.456 307.924 184.5 307.924C245.544 307.924 300.759 320.298 340.677 340.256C380.654 360.245 405 387.674 405 417.674Z"
    stroke="url(#paint20_linear_380_34)"
    stroke-opacity="0.1"
    stroke-width="2"
  />
  <path
    d="M405 429.979C405 459.979 380.654 487.408 340.677 507.397C300.759 527.356 245.544 539.729 184.5 539.729C123.456 539.729 68.2406 527.356 28.3231 507.397C-11.6542 487.408 -36 459.979 -36 429.979C-36 399.98 -11.6542 372.55 28.3231 352.562C68.2406 332.603 123.456 320.229 184.5 320.229C245.544 320.229 300.759 332.603 340.677 352.562C380.654 372.55 405 399.98 405 429.979Z"
    stroke="url(#paint21_linear_380_34)"
    stroke-opacity="0.1"
    stroke-width="2"
  />
  <path
    d="M405 442.285C405 472.285 380.654 499.714 340.677 519.703C300.759 539.662 245.544 552.035 184.5 552.035C123.456 552.035 68.2406 539.662 28.3231 519.703C-11.6542 499.714 -36 472.285 -36 442.285C-36 412.285 -11.6542 384.856 28.3231 364.868C68.2406 344.909 123.456 332.535 184.5 332.535C245.544 332.535 300.759 344.909 340.677 364.868C380.654 384.856 405 412.285 405 442.285Z"
    stroke="url(#paint22_linear_380_34)"
    stroke-opacity="0.1"
    stroke-width="2"
  />
  <path
    d="M405 454.591C405 484.591 380.654 512.02 340.677 532.008C300.759 551.967 245.544 564.341 184.5 564.341C123.456 564.341 68.2406 551.967 28.3231 532.008C-11.6542 512.02 -36 484.591 -36 454.591C-36 424.591 -11.6542 397.162 28.3231 377.173C68.2406 357.214 123.456 344.841 184.5 344.841C245.544 344.841 300.759 357.214 340.677 377.173C380.654 397.162 405 424.591 405 454.591Z"
    stroke="url(#paint23_linear_380_34)"
    stroke-opacity="0.1"
    stroke-width="2"
  />
  <path
    d="M405 466.896C405 496.896 380.654 524.325 340.677 544.314C300.759 564.273 245.544 576.646 184.5 576.646C123.456 576.646 68.2406 564.273 28.3231 544.314C-11.6542 524.325 -36 496.896 -36 466.896C-36 436.896 -11.6542 409.467 28.3231 389.479C68.2406 369.52 123.456 357.146 184.5 357.146C245.544 357.146 300.759 369.52 340.677 389.479C380.654 409.467 405 436.896 405 466.896Z"
    stroke="url(#paint24_linear_380_34)"
    stroke-opacity="0.1"
    stroke-width="2"
  />
  <path
    d="M405 479.202C405 509.202 380.654 536.631 340.677 556.62C300.759 576.578 245.544 588.952 184.5 588.952C123.456 588.952 68.2406 576.578 28.3231 556.62C-11.6542 536.631 -36 509.202 -36 479.202C-36 449.202 -11.6542 421.773 28.3231 401.784C68.2406 381.826 123.456 369.452 184.5 369.452C245.544 369.452 300.759 381.826 340.677 401.784C380.654 421.773 405 449.202 405 479.202Z"
    stroke="url(#paint25_linear_380_34)"
    stroke-opacity="0.1"
    stroke-width="2"
  />
  <path
    d="M405 491.507C405 521.507 380.654 548.936 340.677 568.925C300.759 588.884 245.544 601.257 184.5 601.257C123.456 601.257 68.2406 588.884 28.3231 568.925C-11.6542 548.936 -36 521.507 -36 491.507C-36 461.507 -11.6542 434.078 28.3231 414.09C68.2406 394.131 123.456 381.757 184.5 381.757C245.544 381.757 300.759 394.131 340.677 414.09C380.654 434.078 405 461.507 405 491.507Z"
    stroke="url(#paint26_linear_380_34)"
    stroke-opacity="0.1"
    stroke-width="2"
  />
  <path
    d="M405 503.813C405 533.813 380.654 561.242 340.677 581.231C300.759 601.189 245.544 613.563 184.5 613.563C123.456 613.563 68.2406 601.189 28.3231 581.231C-11.6542 561.242 -36 533.813 -36 503.813C-36 473.813 -11.6542 446.384 28.3231 426.395C68.2406 406.437 123.456 394.063 184.5 394.063C245.544 394.063 300.759 406.437 340.677 426.395C380.654 446.384 405 473.813 405 503.813Z"
    stroke="url(#paint27_linear_380_34)"
    stroke-opacity="0.1"
    stroke-width="2"
  />
  <path
    d="M405 516.118C405 546.118 380.654 573.547 340.677 593.536C300.759 613.495 245.544 625.868 184.5 625.868C123.456 625.868 68.2406 613.495 28.3231 593.536C-11.6542 573.547 -36 546.118 -36 516.118C-36 486.118 -11.6542 458.689 28.3231 438.701C68.2406 418.742 123.456 406.368 184.5 406.368C245.544 406.368 300.759 418.742 340.677 438.701C380.654 458.689 405 486.118 405 516.118Z"
    stroke="url(#paint28_linear_380_34)"
    stroke-opacity="0.1"
    stroke-width="2"
  />
  <path
    d="M405 528.424C405 558.424 380.654 585.853 340.677 605.842C300.759 625.8 245.544 638.174 184.5 638.174C123.456 638.174 68.2406 625.8 28.3231 605.842C-11.6542 585.853 -36 558.424 -36 528.424C-36 498.424 -11.6542 470.995 28.3231 451.006C68.2406 431.048 123.456 418.674 184.5 418.674C245.544 418.674 300.759 431.048 340.677 451.006C380.654 470.995 405 498.424 405 528.424Z"
    stroke="url(#paint29_linear_380_34)"
    stroke-opacity="0.1"
    stroke-width="2"
  />
  <defs>
    <linearGradient
      id="paint0_linear_380_34"
      x1="184.5"
      y1="0"
      x2="184.5"
      y2="221.5"
      gradientUnits="userSpaceOnUse"
    >
      <stop stop-color="white" />
      <stop offset="1" stop-color="#807D7D" stop-opacity="0.54" />
    </linearGradient>
    <linearGradient
      id="paint1_linear_380_34"
      x1="184.5"
      y1="12.3057"
      x2="184.5"
      y2="233.806"
      gradientUnits="userSpaceOnUse"
    >
      <stop stop-color="white" />
      <stop offset="1" stop-color="#807D7D" stop-opacity="0.54" />
    </linearGradient>
    <linearGradient
      id="paint2_linear_380_34"
      x1="184.5"
      y1="24.6111"
      x2="184.5"
      y2="246.111"
      gradientUnits="userSpaceOnUse"
    >
      <stop stop-color="white" />
      <stop offset="1" stop-color="#807D7D" stop-opacity="0.54" />
    </linearGradient>
    <linearGradient
      id="paint3_linear_380_34"
      x1="184.5"
      y1="36.9167"
      x2="184.5"
      y2="258.417"
      gradientUnits="userSpaceOnUse"
    >
      <stop stop-color="white" />
      <stop offset="1" stop-color="#807D7D" stop-opacity="0.54" />
    </linearGradient>
    <linearGradient
      id="paint4_linear_380_34"
      x1="184.5"
      y1="49.2222"
      x2="184.5"
      y2="270.722"
      gradientUnits="userSpaceOnUse"
    >
      <stop stop-color="white" />
      <stop offset="1" stop-color="#807D7D" stop-opacity="0.54" />
    </linearGradient>
    <linearGradient
      id="paint5_linear_380_34"
      x1="184.5"
      y1="61.5278"
      x2="184.5"
      y2="283.028"
      gradientUnits="userSpaceOnUse"
    >
      <stop stop-color="white" />
      <stop offset="1" stop-color="#807D7D" stop-opacity="0.54" />
    </linearGradient>
    <linearGradient
      id="paint6_linear_380_34"
      x1="184.5"
      y1="73.8333"
      x2="184.5"
      y2="295.333"
      gradientUnits="userSpaceOnUse"
    >
      <stop stop-color="white" />
      <stop offset="1" stop-color="#807D7D" stop-opacity="0.54" />
    </linearGradient>
    <linearGradient
      id="paint7_linear_380_34"
      x1="184.5"
      y1="86.1389"
      x2="184.5"
      y2="307.639"
      gradientUnits="userSpaceOnUse"
    >
      <stop stop-color="white" />
      <stop offset="1" stop-color="#807D7D" stop-opacity="0.54" />
    </linearGradient>
    <linearGradient
      id="paint8_linear_380_34"
      x1="184.5"
      y1="98.4443"
      x2="184.5"
      y2="319.944"
      gradientUnits="userSpaceOnUse"
    >
      <stop stop-color="white" />
      <stop offset="1" stop-color="#807D7D" stop-opacity="0.54" />
    </linearGradient>
    <linearGradient
      id="paint9_linear_380_34"
      x1="184.5"
      y1="110.75"
      x2="184.5"
      y2="332.25"
      gradientUnits="userSpaceOnUse"
    >
      <stop stop-color="white" />
      <stop offset="1" stop-color="#807D7D" stop-opacity="0.54" />
    </linearGradient>
    <linearGradient
      id="paint10_linear_380_34"
      x1="184.5"
      y1="123.056"
      x2="184.5"
      y2="344.556"
      gradientUnits="userSpaceOnUse"
    >
      <stop stop-color="white" />
      <stop offset="1" stop-color="#807D7D" stop-opacity="0.54" />
    </linearGradient>
    <linearGradient
      id="paint11_linear_380_34"
      x1="184.5"
      y1="135.361"
      x2="184.5"
      y2="356.861"
      gradientUnits="userSpaceOnUse"
    >
      <stop stop-color="white" />
      <stop offset="1" stop-color="#807D7D" stop-opacity="0.54" />
    </linearGradient>
    <linearGradient
      id="paint12_linear_380_34"
      x1="184.5"
      y1="147.667"
      x2="184.5"
      y2="369.167"
      gradientUnits="userSpaceOnUse"
    >
      <stop stop-color="white" />
      <stop offset="1" stop-color="#807D7D" stop-opacity="0.54" />
    </linearGradient>
    <linearGradient
      id="paint13_linear_380_34"
      x1="184.5"
      y1="159.972"
      x2="184.5"
      y2="381.472"
      gradientUnits="userSpaceOnUse"
    >
      <stop stop-color="white" />
      <stop offset="1" stop-color="#807D7D" stop-opacity="0.54" />
    </linearGradient>
    <linearGradient
      id="paint14_linear_380_34"
      x1="184.5"
      y1="172.278"
      x2="184.5"
      y2="393.778"
      gradientUnits="userSpaceOnUse"
    >
      <stop stop-color="white" />
      <stop offset="1" stop-color="#807D7D" stop-opacity="0.54" />
    </linearGradient>
    <linearGradient
      id="paint15_linear_380_34"
      x1="184.5"
      y1="245.396"
      x2="184.5"
      y2="466.896"
      gradientUnits="userSpaceOnUse"
    >
      <stop stop-color="white" />
      <stop offset="1" stop-color="#807D7D" stop-opacity="0.54" />
    </linearGradient>
    <linearGradient
      id="paint16_linear_380_34"
      x1="184.5"
      y1="257.702"
      x2="184.5"
      y2="479.202"
      gradientUnits="userSpaceOnUse"
    >
      <stop stop-color="white" />
      <stop offset="1" stop-color="#807D7D" stop-opacity="0.54" />
    </linearGradient>
    <linearGradient
      id="paint17_linear_380_34"
      x1="184.5"
      y1="270.007"
      x2="184.5"
      y2="491.507"
      gradientUnits="userSpaceOnUse"
    >
      <stop stop-color="white" />
      <stop offset="1" stop-color="#807D7D" stop-opacity="0.54" />
    </linearGradient>
    <linearGradient
      id="paint18_linear_380_34"
      x1="184.5"
      y1="282.313"
      x2="184.5"
      y2="503.813"
      gradientUnits="userSpaceOnUse"
    >
      <stop stop-color="white" />
      <stop offset="1" stop-color="#807D7D" stop-opacity="0.54" />
    </linearGradient>
    <linearGradient
      id="paint19_linear_380_34"
      x1="184.5"
      y1="294.618"
      x2="184.5"
      y2="516.118"
      gradientUnits="userSpaceOnUse"
    >
      <stop stop-color="white" />
      <stop offset="1" stop-color="#807D7D" stop-opacity="0.54" />
    </linearGradient>
    <linearGradient
      id="paint20_linear_380_34"
      x1="184.5"
      y1="306.924"
      x2="184.5"
      y2="528.424"
      gradientUnits="userSpaceOnUse"
    >
      <stop stop-color="white" />
      <stop offset="1" stop-color="#807D7D" stop-opacity="0.54" />
    </linearGradient>
    <linearGradient
      id="paint21_linear_380_34"
      x1="184.5"
      y1="319.229"
      x2="184.5"
      y2="540.729"
      gradientUnits="userSpaceOnUse"
    >
      <stop stop-color="white" />
      <stop offset="1" stop-color="#807D7D" stop-opacity="0.54" />
    </linearGradient>
    <linearGradient
      id="paint22_linear_380_34"
      x1="184.5"
      y1="331.535"
      x2="184.5"
      y2="553.035"
      gradientUnits="userSpaceOnUse"
    >
      <stop stop-color="white" />
      <stop offset="1" stop-color="#807D7D" stop-opacity="0.54" />
    </linearGradient>
    <linearGradient
      id="paint23_linear_380_34"
      x1="184.5"
      y1="343.841"
      x2="184.5"
      y2="565.341"
      gradientUnits="userSpaceOnUse"
    >
      <stop stop-color="white" />
      <stop offset="1" stop-color="#807D7D" stop-opacity="0.54" />
    </linearGradient>
    <linearGradient
      id="paint24_linear_380_34"
      x1="184.5"
      y1="356.146"
      x2="184.5"
      y2="577.646"
      gradientUnits="userSpaceOnUse"
    >
      <stop stop-color="white" />
      <stop offset="1" stop-color="#807D7D" stop-opacity="0.54" />
    </linearGradient>
    <linearGradient
      id="paint25_linear_380_34"
      x1="184.5"
      y1="368.452"
      x2="184.5"
      y2="589.952"
      gradientUnits="userSpaceOnUse"
    >
      <stop stop-color="white" />
      <stop offset="1" stop-color="#807D7D" stop-opacity="0.54" />
    </linearGradient>
    <linearGradient
      id="paint26_linear_380_34"
      x1="184.5"
      y1="380.757"
      x2="184.5"
      y2="602.257"
      gradientUnits="userSpaceOnUse"
    >
      <stop stop-color="white" />
      <stop offset="1" stop-color="#807D7D" stop-opacity="0.54" />
    </linearGradient>
    <linearGradient
      id="paint27_linear_380_34"
      x1="184.5"
      y1="393.063"
      x2="184.5"
      y2="614.563"
      gradientUnits="userSpaceOnUse"
    >
      <stop stop-color="white" />
      <stop offset="1" stop-color="#807D7D" stop-opacity="0.54" />
    </linearGradient>
    <linearGradient
      id="paint28_linear_380_34"
      x1="184.5"
      y1="405.368"
      x2="184.5"
      y2="626.868"
      gradientUnits="userSpaceOnUse"
    >
      <stop stop-color="white" />
      <stop offset="1" stop-color="#807D7D" stop-opacity="0.54" />
    </linearGradient>
    <linearGradient
      id="paint29_linear_380_34"
      x1="184.5"
      y1="417.674"
      x2="184.5"
      y2="639.174"
      gradientUnits="userSpaceOnUse"
    >
      <stop stop-color="white" />
      <stop offset="1" stop-color="#807D7D" stop-opacity="0.54" />
    </linearGradient>
  </defs>
</svg>